<mxfile host="Electron" agent="Mozilla/5.0 (Windows NT 10.0; Win64; x64) AppleWebKit/537.36 (KHTML, like Gecko) draw.io/27.0.9 Chrome/134.0.6998.205 Electron/35.4.0 Safari/537.36" version="27.0.9">
  <diagram name="หน้า-1" id="_wWSy1RfQXR7xDOva6xf">
    <mxGraphModel dx="1246" dy="841" grid="1" gridSize="10" guides="1" tooltips="1" connect="1" arrows="1" fold="1" page="1" pageScale="1" pageWidth="827" pageHeight="1169" math="0" shadow="0">
      <root>
        <mxCell id="0" />
        <mxCell id="1" parent="0" />
        <mxCell id="W8yu4oAB9DbfMgECsL99-5" value="" style="edgeStyle=orthogonalEdgeStyle;rounded=0;orthogonalLoop=1;jettySize=auto;html=1;" parent="1" source="W8yu4oAB9DbfMgECsL99-1" target="W8yu4oAB9DbfMgECsL99-4" edge="1">
          <mxGeometry relative="1" as="geometry" />
        </mxCell>
        <mxCell id="W8yu4oAB9DbfMgECsL99-1" value="เริ่มต้น" style="ellipse;whiteSpace=wrap;html=1;" parent="1" vertex="1">
          <mxGeometry x="319" y="50" width="190" height="80" as="geometry" />
        </mxCell>
        <mxCell id="W8yu4oAB9DbfMgECsL99-4" value="รับค่า N" style="shape=parallelogram;perimeter=parallelogramPerimeter;whiteSpace=wrap;html=1;fixedSize=1;" parent="1" vertex="1">
          <mxGeometry x="354" y="160" width="120" height="60" as="geometry" />
        </mxCell>
        <mxCell id="m8g36Obhe0upxs0tZCpy-6" style="edgeStyle=none;curved=1;rounded=0;orthogonalLoop=1;jettySize=auto;html=1;exitX=0.5;exitY=1;exitDx=0;exitDy=0;entryX=0.5;entryY=0;entryDx=0;entryDy=0;fontSize=12;startSize=8;endSize=8;" edge="1" parent="1" source="W8yu4oAB9DbfMgECsL99-10" target="m8g36Obhe0upxs0tZCpy-3">
          <mxGeometry relative="1" as="geometry" />
        </mxCell>
        <mxCell id="W8yu4oAB9DbfMgECsL99-10" value="N &amp;gt;0" style="rhombus;whiteSpace=wrap;html=1;" parent="1" vertex="1">
          <mxGeometry x="331" y="370" width="166" height="130" as="geometry" />
        </mxCell>
        <mxCell id="W8yu4oAB9DbfMgECsL99-20" value="" style="edgeStyle=orthogonalEdgeStyle;rounded=0;orthogonalLoop=1;jettySize=auto;html=1;" parent="1" source="W8yu4oAB9DbfMgECsL99-8" edge="1">
          <mxGeometry relative="1" as="geometry">
            <mxPoint x="414" y="280" as="sourcePoint" />
            <mxPoint x="414" y="330" as="targetPoint" />
          </mxGeometry>
        </mxCell>
        <mxCell id="W8yu4oAB9DbfMgECsL99-49" value="สิ้นสุด" style="ellipse;whiteSpace=wrap;html=1;" parent="1" vertex="1">
          <mxGeometry x="324" y="1300" width="180" height="80" as="geometry" />
        </mxCell>
        <mxCell id="W8yu4oAB9DbfMgECsL99-50" value="" style="shape=waypoint;sketch=0;size=6;pointerEvents=1;points=[];fillColor=default;resizable=0;rotatable=0;perimeter=centerPerimeter;snapToPoint=1;" parent="1" vertex="1">
          <mxGeometry x="404" y="1320" width="20" height="20" as="geometry" />
        </mxCell>
        <mxCell id="m8g36Obhe0upxs0tZCpy-2" style="edgeStyle=none;curved=1;rounded=0;orthogonalLoop=1;jettySize=auto;html=1;exitX=0.5;exitY=1;exitDx=0;exitDy=0;fontSize=12;startSize=8;endSize=8;" edge="1" parent="1">
          <mxGeometry relative="1" as="geometry">
            <mxPoint x="414" y="789.9999999999998" as="sourcePoint" />
            <mxPoint x="414" y="789.9999999999998" as="targetPoint" />
          </mxGeometry>
        </mxCell>
        <mxCell id="m8g36Obhe0upxs0tZCpy-5" value="" style="edgeStyle=none;curved=1;rounded=0;orthogonalLoop=1;jettySize=auto;html=1;fontSize=12;startSize=8;endSize=8;" edge="1" parent="1" source="m8g36Obhe0upxs0tZCpy-3" target="m8g36Obhe0upxs0tZCpy-4">
          <mxGeometry relative="1" as="geometry" />
        </mxCell>
        <mxCell id="m8g36Obhe0upxs0tZCpy-3" value="N % 2 == 1" style="rhombus;whiteSpace=wrap;html=1;" vertex="1" parent="1">
          <mxGeometry x="325" y="520" width="179" height="140" as="geometry" />
        </mxCell>
        <mxCell id="m8g36Obhe0upxs0tZCpy-15" value="" style="edgeStyle=none;curved=1;rounded=0;orthogonalLoop=1;jettySize=auto;html=1;fontSize=12;startSize=8;endSize=8;" edge="1" parent="1" source="m8g36Obhe0upxs0tZCpy-4">
          <mxGeometry relative="1" as="geometry">
            <mxPoint x="414" y="900" as="targetPoint" />
          </mxGeometry>
        </mxCell>
        <mxCell id="m8g36Obhe0upxs0tZCpy-4" value="แสดงเลขคี่" style="shape=parallelogram;perimeter=parallelogramPerimeter;whiteSpace=wrap;html=1;fixedSize=1;" vertex="1" parent="1">
          <mxGeometry x="354" y="710" width="120" height="60" as="geometry" />
        </mxCell>
        <mxCell id="m8g36Obhe0upxs0tZCpy-7" value="" style="edgeStyle=orthogonalEdgeStyle;rounded=0;orthogonalLoop=1;jettySize=auto;html=1;" edge="1" parent="1" source="W8yu4oAB9DbfMgECsL99-4" target="W8yu4oAB9DbfMgECsL99-8">
          <mxGeometry relative="1" as="geometry">
            <mxPoint x="414" y="250" as="sourcePoint" />
            <mxPoint x="414" y="330" as="targetPoint" />
          </mxGeometry>
        </mxCell>
        <mxCell id="W8yu4oAB9DbfMgECsL99-8" value="N=N" style="whiteSpace=wrap;html=1;" parent="1" vertex="1">
          <mxGeometry x="354" y="250" width="120" height="60" as="geometry" />
        </mxCell>
        <mxCell id="m8g36Obhe0upxs0tZCpy-9" value="แสดงเลขคู่" style="shape=parallelogram;perimeter=parallelogramPerimeter;whiteSpace=wrap;html=1;fixedSize=1;" vertex="1" parent="1">
          <mxGeometry x="559" y="710" width="120" height="60" as="geometry" />
        </mxCell>
        <mxCell id="m8g36Obhe0upxs0tZCpy-12" value="" style="endArrow=none;html=1;rounded=0;fontSize=12;startSize=8;endSize=8;curved=1;entryX=1;entryY=0.5;entryDx=0;entryDy=0;" edge="1" parent="1" target="m8g36Obhe0upxs0tZCpy-3">
          <mxGeometry width="50" height="50" relative="1" as="geometry">
            <mxPoint x="620" y="590" as="sourcePoint" />
            <mxPoint x="640" y="585" as="targetPoint" />
          </mxGeometry>
        </mxCell>
        <mxCell id="m8g36Obhe0upxs0tZCpy-13" value="" style="endArrow=classic;html=1;rounded=0;fontSize=12;startSize=8;endSize=8;curved=1;entryX=0.5;entryY=0;entryDx=0;entryDy=0;" edge="1" parent="1" target="m8g36Obhe0upxs0tZCpy-9">
          <mxGeometry width="50" height="50" relative="1" as="geometry">
            <mxPoint x="619" y="590" as="sourcePoint" />
            <mxPoint x="619" y="690" as="targetPoint" />
          </mxGeometry>
        </mxCell>
        <mxCell id="m8g36Obhe0upxs0tZCpy-17" value="" style="endArrow=none;html=1;rounded=0;fontSize=12;startSize=8;endSize=8;curved=1;entryX=0.5;entryY=1;entryDx=0;entryDy=0;" edge="1" parent="1" target="m8g36Obhe0upxs0tZCpy-9">
          <mxGeometry width="50" height="50" relative="1" as="geometry">
            <mxPoint x="619" y="910" as="sourcePoint" />
            <mxPoint x="639" y="830" as="targetPoint" />
          </mxGeometry>
        </mxCell>
        <mxCell id="m8g36Obhe0upxs0tZCpy-18" value="" style="endArrow=classic;html=1;rounded=0;fontSize=12;startSize=8;endSize=8;curved=1;" edge="1" parent="1">
          <mxGeometry width="50" height="50" relative="1" as="geometry">
            <mxPoint x="620" y="910" as="sourcePoint" />
            <mxPoint x="430" y="910" as="targetPoint" />
          </mxGeometry>
        </mxCell>
        <mxCell id="m8g36Obhe0upxs0tZCpy-19" value="&lt;font style=&quot;color: rgb(255, 0, 0);&quot;&gt;เท็จ&lt;/font&gt;" style="text;html=1;align=center;verticalAlign=middle;resizable=0;points=[];autosize=1;strokeColor=none;fillColor=none;fontSize=16;" vertex="1" parent="1">
          <mxGeometry x="559" y="551" width="50" height="30" as="geometry" />
        </mxCell>
        <mxCell id="m8g36Obhe0upxs0tZCpy-20" value="&lt;font style=&quot;color: rgb(0, 204, 0);&quot;&gt;จริง&lt;/font&gt;" style="text;html=1;align=center;verticalAlign=middle;resizable=0;points=[];autosize=1;strokeColor=none;fillColor=none;fontSize=16;" vertex="1" parent="1">
          <mxGeometry x="339" y="661" width="50" height="30" as="geometry" />
        </mxCell>
        <mxCell id="m8g36Obhe0upxs0tZCpy-21" value="&lt;font style=&quot;color: rgb(0, 255, 0);&quot;&gt;จริง&lt;/font&gt;" style="text;html=1;align=center;verticalAlign=middle;resizable=0;points=[];autosize=1;strokeColor=none;fillColor=none;fontSize=16;" vertex="1" parent="1">
          <mxGeometry x="339" y="471" width="50" height="30" as="geometry" />
        </mxCell>
        <mxCell id="m8g36Obhe0upxs0tZCpy-24" value="" style="edgeStyle=none;curved=1;rounded=0;orthogonalLoop=1;jettySize=auto;html=1;fontSize=12;startSize=8;endSize=8;" edge="1" parent="1" source="m8g36Obhe0upxs0tZCpy-22" target="m8g36Obhe0upxs0tZCpy-23">
          <mxGeometry relative="1" as="geometry" />
        </mxCell>
        <mxCell id="m8g36Obhe0upxs0tZCpy-22" value="" style="ellipse;whiteSpace=wrap;html=1;aspect=fixed;" vertex="1" parent="1">
          <mxGeometry x="404.5" y="900" width="20" height="20" as="geometry" />
        </mxCell>
        <mxCell id="m8g36Obhe0upxs0tZCpy-23" value="N-1" style="whiteSpace=wrap;html=1;" vertex="1" parent="1">
          <mxGeometry x="354.5" y="980" width="120" height="60" as="geometry" />
        </mxCell>
        <mxCell id="m8g36Obhe0upxs0tZCpy-25" value="" style="endArrow=none;html=1;rounded=0;fontSize=12;startSize=8;endSize=8;curved=1;entryX=0.5;entryY=1;entryDx=0;entryDy=0;" edge="1" parent="1" target="m8g36Obhe0upxs0tZCpy-23">
          <mxGeometry width="50" height="50" relative="1" as="geometry">
            <mxPoint x="415" y="1140" as="sourcePoint" />
            <mxPoint x="414" y="1090" as="targetPoint" />
          </mxGeometry>
        </mxCell>
        <mxCell id="m8g36Obhe0upxs0tZCpy-26" value="" style="endArrow=none;html=1;rounded=0;fontSize=12;startSize=8;endSize=8;curved=1;" edge="1" parent="1">
          <mxGeometry width="50" height="50" relative="1" as="geometry">
            <mxPoint x="196" y="1140" as="sourcePoint" />
            <mxPoint x="416" y="1140" as="targetPoint" />
          </mxGeometry>
        </mxCell>
        <mxCell id="m8g36Obhe0upxs0tZCpy-27" value="" style="endArrow=none;html=1;rounded=0;fontSize=12;startSize=8;endSize=8;curved=1;" edge="1" parent="1">
          <mxGeometry width="50" height="50" relative="1" as="geometry">
            <mxPoint x="200" y="1140" as="sourcePoint" />
            <mxPoint x="200" y="340" as="targetPoint" />
          </mxGeometry>
        </mxCell>
        <mxCell id="m8g36Obhe0upxs0tZCpy-28" value="" style="endArrow=classic;html=1;rounded=0;fontSize=12;startSize=8;endSize=8;curved=1;" edge="1" parent="1">
          <mxGeometry width="50" height="50" relative="1" as="geometry">
            <mxPoint x="200" y="340" as="sourcePoint" />
            <mxPoint x="400" y="340" as="targetPoint" />
          </mxGeometry>
        </mxCell>
        <mxCell id="m8g36Obhe0upxs0tZCpy-30" style="edgeStyle=none;curved=1;rounded=0;orthogonalLoop=1;jettySize=auto;html=1;exitX=0.5;exitY=1;exitDx=0;exitDy=0;entryX=0.5;entryY=0;entryDx=0;entryDy=0;fontSize=12;startSize=8;endSize=8;" edge="1" parent="1" source="m8g36Obhe0upxs0tZCpy-29" target="W8yu4oAB9DbfMgECsL99-10">
          <mxGeometry relative="1" as="geometry" />
        </mxCell>
        <mxCell id="m8g36Obhe0upxs0tZCpy-29" value="" style="ellipse;whiteSpace=wrap;html=1;aspect=fixed;" vertex="1" parent="1">
          <mxGeometry x="404" y="330" width="20" height="20" as="geometry" />
        </mxCell>
        <mxCell id="m8g36Obhe0upxs0tZCpy-31" value="" style="endArrow=none;html=1;rounded=0;fontSize=12;startSize=8;endSize=8;curved=1;exitX=1;exitY=0.5;exitDx=0;exitDy=0;" edge="1" parent="1" source="W8yu4oAB9DbfMgECsL99-10">
          <mxGeometry width="50" height="50" relative="1" as="geometry">
            <mxPoint x="550" y="450" as="sourcePoint" />
            <mxPoint x="760" y="435" as="targetPoint" />
          </mxGeometry>
        </mxCell>
        <mxCell id="m8g36Obhe0upxs0tZCpy-33" value="" style="endArrow=none;html=1;rounded=0;fontSize=12;startSize=8;endSize=8;curved=1;" edge="1" parent="1">
          <mxGeometry width="50" height="50" relative="1" as="geometry">
            <mxPoint x="760" y="1200" as="sourcePoint" />
            <mxPoint x="760" y="434" as="targetPoint" />
          </mxGeometry>
        </mxCell>
        <mxCell id="m8g36Obhe0upxs0tZCpy-34" value="" style="endArrow=none;html=1;rounded=0;fontSize=12;startSize=8;endSize=8;curved=1;" edge="1" parent="1">
          <mxGeometry width="50" height="50" relative="1" as="geometry">
            <mxPoint x="410" y="1200" as="sourcePoint" />
            <mxPoint x="760" y="1200" as="targetPoint" />
          </mxGeometry>
        </mxCell>
        <mxCell id="m8g36Obhe0upxs0tZCpy-35" value="" style="endArrow=classic;html=1;rounded=0;fontSize=12;startSize=8;endSize=8;curved=1;entryX=0.474;entryY=-0.008;entryDx=0;entryDy=0;entryPerimeter=0;" edge="1" parent="1" target="W8yu4oAB9DbfMgECsL99-49">
          <mxGeometry width="50" height="50" relative="1" as="geometry">
            <mxPoint x="410" y="1200" as="sourcePoint" />
            <mxPoint x="550" y="1200" as="targetPoint" />
          </mxGeometry>
        </mxCell>
        <mxCell id="m8g36Obhe0upxs0tZCpy-36" value="&lt;font style=&quot;color: rgb(204, 0, 0);&quot;&gt;เท็จ&lt;/font&gt;" style="text;html=1;align=center;verticalAlign=middle;resizable=0;points=[];autosize=1;strokeColor=none;fillColor=none;fontSize=16;" vertex="1" parent="1">
          <mxGeometry x="529" y="401" width="50" height="30" as="geometry" />
        </mxCell>
      </root>
    </mxGraphModel>
  </diagram>
</mxfile>
